<svg version="1.1" id="Layer_1" xmlns="http://www.w3.org/2000/svg" xmlns:xlink="http://www.w3.org/1999/xlink" x="0px" y="0px"
	 width="100%" viewBox="0 0 500 500" enable-background="new 0 0 500 500" xml:space="preserve">
<path fill="#000000" opacity="1.000000" stroke="none" 
	d="
M342.000000,501.000000 
	C228.000031,501.000000 114.500053,501.000000 1.000061,501.000000 
	C1.000041,334.333405 1.000041,167.666794 1.000020,1.000150 
	C167.666565,1.000100 334.333130,1.000100 500.999756,1.000050 
	C500.999847,167.666519 500.999847,334.333038 500.999939,500.999786 
	C448.166656,501.000000 395.333344,501.000000 342.000000,501.000000 
M335.998383,213.999191 
	C335.998383,213.999191 336.004089,214.020554 336.504364,213.875443 
	C336.679230,213.587509 336.854065,213.299576 337.501038,212.911972 
	C337.501038,212.911972 337.956116,212.751556 338.466553,212.819946 
	C338.640808,212.542969 338.815063,212.265976 339.000000,212.000000 
	C339.000000,212.000000 338.986633,211.991867 339.553802,211.794785 
	C339.947388,211.151230 340.340973,210.507690 340.905609,209.467499 
	C340.905609,209.467499 340.992859,209.044434 341.558441,208.826218 
	C341.945496,208.177155 342.332581,207.528107 342.880737,206.289230 
	C342.916168,205.883072 342.951599,205.476898 343.647522,204.560074 
	C343.431915,201.345123 343.216309,198.130157 342.961151,194.480576 
	C342.961151,194.480576 342.836060,194.062469 342.960297,193.437485 
	C342.642395,192.950516 342.324493,192.463547 341.997986,192.001923 
	C341.997986,192.001923 342.024750,191.999023 341.891266,191.479721 
	C341.600159,191.286697 341.309052,191.093674 340.937408,190.502457 
	C340.937408,190.502457 340.798370,190.120743 340.827332,189.469101 
	C339.831512,188.721207 338.835693,187.973328 337.470795,187.068710 
	C337.470795,187.068710 337.075897,186.999130 336.743378,186.307266 
	C331.534912,182.649551 325.664062,184.191986 319.217590,184.046280 
	C318.176117,184.096710 317.134613,184.147141 315.288605,184.124466 
	C314.897736,185.063568 314.133057,186.021637 314.179626,186.938522 
	C314.401398,191.304581 314.843750,195.659454 315.110443,200.665222 
	C315.143097,201.098892 315.175781,201.532578 315.022552,202.859283 
	C314.764648,207.072144 314.506744,211.285004 314.174652,216.710083 
	C320.798767,216.110107 326.941193,215.553757 333.704376,214.954102 
	C334.113281,214.891678 334.522156,214.829269 335.460907,214.860840 
	C335.646912,214.575546 335.832916,214.290253 335.998383,213.999191 
M233.999954,210.994568 
	C233.999954,210.994568 234.010986,211.019760 234.721390,210.606888 
	C234.489441,207.732651 234.257492,204.858398 234.001831,201.998169 
	C234.001831,201.998169 234.020279,201.977341 233.923996,201.312408 
	C232.955475,200.520401 231.986969,199.728394 230.610138,198.367355 
	C227.656052,197.079330 224.758728,195.635193 221.735992,194.535889 
	C215.521408,192.275772 215.055252,190.157043 220.839188,185.879852 
	C226.136673,185.289871 230.292816,186.877579 232.445999,193.004227 
	C233.408142,185.985077 232.851303,185.296646 226.000000,183.999390 
	C226.000000,183.999390 226.050369,183.962677 225.617569,183.264221 
	C222.728714,183.507095 219.839844,183.749969 216.211212,184.055984 
	C211.319153,185.834839 209.646927,189.086945 210.946182,193.731934 
	C212.498199,199.280548 217.596832,199.403336 221.709976,200.888092 
	C228.978622,203.511932 230.222717,205.711792 227.078690,212.944901 
	C218.078491,215.472107 215.503098,214.164291 209.757431,204.523285 
	C209.488434,207.375214 208.741486,211.478821 210.292145,212.726120 
	C215.122650,216.611755 224.397873,219.985077 231.001831,214.002487 
	C231.001831,214.002487 231.010132,214.003098 231.493011,213.841751 
	C231.668350,213.560913 231.843674,213.280075 232.487915,212.833023 
	C232.783997,212.635468 232.952866,212.359940 233.486664,211.853912 
	C233.666245,211.571518 233.845825,211.289124 233.999954,210.994568 
M296.174225,207.489273 
	C296.453003,207.670197 296.731812,207.851120 297.121094,208.703445 
	C297.802338,210.110046 298.483551,211.516632 299.025208,213.648499 
	C299.702911,214.373032 300.380615,215.097580 301.798035,215.943405 
	C303.233795,215.875854 304.669556,215.808319 306.258636,215.733551 
	C302.506744,206.501541 298.688873,197.667328 295.382324,188.645691 
	C294.326508,185.764923 293.017517,184.251480 289.302582,184.108017 
	C288.778870,184.669510 288.015411,185.141525 287.767487,185.805923 
	C284.076660,195.696198 280.454041,205.611923 276.718292,215.785797 
	C278.582428,215.785797 280.341675,215.785797 282.100922,215.785797 
	C281.652130,215.525818 281.203339,215.265839 280.754517,215.005859 
	C282.007782,212.059097 282.494995,208.162674 284.694244,206.388657 
	C287.975555,203.741776 292.364075,203.994507 295.993286,207.010910 
	C295.993286,207.010910 296.022766,207.003174 296.174225,207.489273 
M351.386993,214.439453 
	C351.684174,214.923340 351.976379,215.826004 352.279236,215.829559 
	C359.080383,215.909729 365.882660,215.891113 372.966339,215.891113 
	C372.821716,214.214172 372.721710,213.054855 372.707520,212.890411 
	C367.712402,213.378693 363.123138,213.827301 357.874695,214.340332 
	C357.874695,203.758133 357.874695,194.030899 357.874695,184.017670 
	C355.816437,184.017670 354.237762,183.724640 352.890259,184.155197 
	C352.313660,184.339462 352.218597,186.030899 351.954437,187.968231 
	C351.953979,196.632080 351.953522,205.295929 351.386993,214.439453 
M175.012009,185.951614 
	C174.999908,194.424530 174.938797,202.897903 175.021866,211.369888 
	C175.036438,212.857117 175.655594,214.338409 176.664688,215.990311 
	C177.753586,216.247406 178.842499,216.504517 178.859482,216.508530 
	C178.425232,207.693451 178.006958,199.202393 177.588684,190.711319 
	C186.126373,198.709457 191.193710,209.025299 199.619415,216.402008 
	C200.119156,216.177704 200.618896,215.953400 201.118637,215.729111 
	C201.118637,205.264206 201.118637,194.799316 201.118637,184.214859 
	C199.847672,184.214859 198.388229,184.214859 198.013962,184.214859 
	C198.460739,191.349365 198.899231,198.351532 199.337723,205.353699 
	C198.857071,205.471771 198.376434,205.589844 197.895782,205.707916 
	C193.223358,199.414368 188.457840,193.187027 183.915543,186.800919 
	C181.433273,183.311050 178.596786,183.102020 175.012009,185.951614 
M172.654266,126.624954 
	C173.677948,123.702164 175.701965,122.719894 178.790680,122.837654 
	C184.384064,123.050880 189.991394,122.898064 195.535477,122.898064 
	C195.535477,119.564423 195.535477,116.993523 195.535477,114.481812 
	C172.273300,114.481812 149.384872,114.481812 126.554649,114.481812 
	C125.554977,122.703712 125.727501,122.909325 133.276321,122.915771 
	C135.775497,122.917900 138.310165,123.172997 140.766403,122.845657 
	C145.792038,122.175873 149.133362,123.714577 150.000000,129.924652 
	C150.000000,144.494431 150.000000,159.064209 150.000000,173.633896 
	C157.645020,173.633896 164.548416,173.633896 172.017990,173.633896 
	C172.017990,157.877411 172.017990,142.440140 172.654266,126.624954 
M314.847809,114.625664 
	C313.372955,114.454887 311.898346,114.137306 310.423248,114.135017 
	C281.114410,114.089584 251.805542,114.078598 222.496674,114.073105 
	C221.534195,114.072922 220.571671,114.203674 219.689087,114.267609 
	C218.213699,122.463028 218.562744,122.891731 226.267471,122.883919 
	C229.597916,122.880539 232.928848,122.889557 236.258728,122.944122 
	C241.615662,123.031921 242.977448,124.368828 242.994934,129.645050 
	C243.024155,138.470963 243.002533,147.297058 243.002380,156.123077 
	C243.002289,161.893417 243.002350,167.663757 243.002350,173.567383 
	C250.910248,173.567383 258.123047,173.567383 265.838043,173.567383 
	C265.838043,171.411484 265.837189,169.613419 265.838165,167.815353 
	C265.845154,154.826279 265.924561,141.836594 265.818176,128.848450 
	C265.783875,124.658493 267.384888,122.838760 271.698120,122.887054 
	C284.185730,123.026878 296.676666,122.850983 309.164978,122.954979 
	C320.328339,123.047943 329.047363,128.527756 335.913300,136.681839 
	C344.026642,146.317337 347.639282,158.105927 350.154572,170.271011 
	C350.425537,171.581482 351.811371,173.645660 352.742126,173.680008 
	C360.295746,173.958878 367.864197,173.836670 375.774078,173.836670 
	C370.839478,155.193588 362.707733,139.373230 347.448059,128.137817 
	C337.998840,121.180511 327.759277,115.768692 314.847809,114.625664 
M250.585663,225.017166 
	C248.162979,225.017166 245.740295,225.017166 243.028748,225.017166 
	C243.028748,239.403900 243.036713,253.038040 243.025391,266.672180 
	C243.019775,273.448090 241.400711,275.031403 234.545502,275.037018 
	C229.468338,275.041138 224.391190,275.037811 219.474518,275.037811 
	C219.474518,278.157227 219.474518,280.382843 219.474518,282.722748 
	C221.026733,282.800842 222.176498,282.908142 223.326355,282.909271 
	C252.799210,282.938690 282.273224,283.094452 311.743774,282.843536 
	C316.718597,282.801208 321.866516,281.544617 326.612946,279.913483 
	C348.268677,272.471436 362.152222,256.910034 370.886139,236.286560 
	C372.363617,232.797714 373.272217,229.067947 374.585052,225.012787 
	C366.934357,225.012787 360.110840,225.152557 353.297821,224.946243 
	C350.443909,224.859818 349.529999,226.241150 349.093597,228.605911 
	C347.334747,238.136063 344.253601,247.169769 338.992493,255.383224 
	C330.899872,268.017120 319.716034,275.150177 304.367554,275.045441 
	C293.877625,274.973846 283.386749,275.056183 272.896423,275.023651 
	C267.303406,275.006256 265.906647,273.625244 265.881927,267.996399 
	C265.827118,255.508255 265.840118,243.019791 265.826141,230.531464 
	C265.824188,228.782410 265.825867,227.033356 265.825867,225.018051 
	C260.534119,225.018051 256.046661,225.018051 250.585663,225.017166 
M172.008774,229.659790 
	C171.916870,228.220703 171.824966,226.781616 171.736237,225.392288 
	C164.324936,225.392288 157.272461,225.392288 149.999680,225.392288 
	C149.999680,227.081879 149.999680,228.401031 149.999695,229.720184 
	C149.999741,241.379135 150.207367,253.042862 149.938095,264.695587 
	C149.696747,275.139557 147.647476,275.228394 139.837784,275.055115 
	C135.395477,274.956543 130.949203,275.037262 126.401527,275.037262 
	C126.401527,277.916748 126.401527,280.159088 126.401527,282.630432 
	C149.565399,282.630432 172.457016,282.630432 195.599838,282.630432 
	C195.599838,280.086517 195.599838,277.845123 195.599838,275.051514 
	C190.612167,275.051514 185.826447,275.057007 181.040771,275.050262 
	C173.563522,275.039703 171.938019,273.442078 171.948196,266.107483 
	C171.964600,254.282364 171.987991,242.457230 172.008774,229.659790 
M258.962921,199.503448 
	C258.962921,195.062332 258.962921,190.621216 258.962921,185.311722 
	C262.758118,186.268036 265.770844,187.027161 268.971588,187.833664 
	C268.854645,186.667816 268.732117,185.446182 268.603851,184.167389 
	C259.977753,184.167389 251.704071,184.167389 243.313370,184.167389 
	C243.313370,185.608139 243.313370,186.851120 243.313370,187.657150 
	C246.441422,186.959381 249.458115,186.286453 252.708145,185.561462 
	C252.708145,196.261673 252.708145,205.928238 252.708145,215.698608 
	C254.886765,215.698608 256.945160,215.698608 258.962433,215.698608 
	C258.962433,210.418793 258.962433,205.457153 258.962921,199.503448 
M164.547760,183.984558 
	C163.142929,184.105652 161.738098,184.226746 160.615875,184.323486 
	C160.615875,195.023621 160.615875,205.183472 160.615875,215.681335 
	C162.543655,215.681335 164.564682,215.681335 166.944717,215.681335 
	C166.944717,205.637985 166.975784,195.891907 166.879929,186.147064 
	C166.873001,185.442871 165.941803,184.747757 164.547760,183.984558 
z"/>
<path fill="#7B1CF4" opacity="1.000000" stroke="none" 
	d="
M315.268738,114.787407 
	C327.759277,115.768692 337.998840,121.180511 347.448059,128.137817 
	C362.707733,139.373230 370.839478,155.193588 375.774078,173.836670 
	C367.864197,173.836670 360.295746,173.958878 352.742126,173.680008 
	C351.811371,173.645660 350.425537,171.581482 350.154572,170.271011 
	C347.639282,158.105927 344.026642,146.317337 335.913300,136.681839 
	C329.047363,128.527756 320.328339,123.047943 309.164978,122.954979 
	C296.676666,122.850983 284.185730,123.026878 271.698120,122.887054 
	C267.384888,122.838760 265.783875,124.658493 265.818176,128.848450 
	C265.924561,141.836594 265.845154,154.826279 265.838165,167.815353 
	C265.837189,169.613419 265.838043,171.411484 265.838043,173.567383 
	C258.123047,173.567383 250.910248,173.567383 243.002350,173.567383 
	C243.002350,167.663757 243.002289,161.893417 243.002380,156.123077 
	C243.002533,147.297058 243.024155,138.470963 242.994934,129.645050 
	C242.977448,124.368828 241.615662,123.031921 236.258728,122.944122 
	C232.928848,122.889557 229.597916,122.880539 226.267471,122.883919 
	C218.562744,122.891731 218.213699,122.463028 219.689087,114.267609 
	C220.571671,114.203674 221.534195,114.072922 222.496674,114.073105 
	C251.805542,114.078598 281.114410,114.089584 310.423248,114.135017 
	C311.898346,114.137306 313.372955,114.454887 315.268738,114.787407 
z"/>
<path fill="#7C1BF6" opacity="1.000000" stroke="none" 
	d="
M251.072433,225.017609 
	C256.046661,225.018051 260.534119,225.018051 265.825867,225.018051 
	C265.825867,227.033356 265.824188,228.782410 265.826141,230.531464 
	C265.840118,243.019791 265.827118,255.508255 265.881927,267.996399 
	C265.906647,273.625244 267.303406,275.006256 272.896423,275.023651 
	C283.386749,275.056183 293.877625,274.973846 304.367554,275.045441 
	C319.716034,275.150177 330.899872,268.017120 338.992493,255.383224 
	C344.253601,247.169769 347.334747,238.136063 349.093597,228.605911 
	C349.529999,226.241150 350.443909,224.859818 353.297821,224.946243 
	C360.110840,225.152557 366.934357,225.012787 374.585052,225.012787 
	C373.272217,229.067947 372.363617,232.797714 370.886139,236.286560 
	C362.152222,256.910034 348.268677,272.471436 326.612946,279.913483 
	C321.866516,281.544617 316.718597,282.801208 311.743774,282.843536 
	C282.273224,283.094452 252.799210,282.938690 223.326355,282.909271 
	C222.176498,282.908142 221.026733,282.800842 219.474518,282.722748 
	C219.474518,280.382843 219.474518,278.157227 219.474518,275.037811 
	C224.391190,275.037811 229.468338,275.041138 234.545502,275.037018 
	C241.400711,275.031403 243.019775,273.448090 243.025391,266.672180 
	C243.036713,253.038040 243.028748,239.403900 243.028748,225.017166 
	C245.740295,225.017166 248.162979,225.017166 251.072433,225.017609 
z"/>
<path fill="#7D1AF9" opacity="1.000000" stroke="none" 
	d="
M172.008606,230.145950 
	C171.987991,242.457230 171.964600,254.282364 171.948196,266.107483 
	C171.938019,273.442078 173.563522,275.039703 181.040771,275.050262 
	C185.826447,275.057007 190.612167,275.051514 195.599838,275.051514 
	C195.599838,277.845123 195.599838,280.086517 195.599838,282.630432 
	C172.457016,282.630432 149.565399,282.630432 126.401527,282.630432 
	C126.401527,280.159088 126.401527,277.916748 126.401527,275.037262 
	C130.949203,275.037262 135.395477,274.956543 139.837784,275.055115 
	C147.647476,275.228394 149.696747,275.139557 149.938095,264.695587 
	C150.207367,253.042862 149.999741,241.379135 149.999695,229.720184 
	C149.999680,228.401031 149.999680,227.081879 149.999680,225.392288 
	C157.272461,225.392288 164.324936,225.392288 171.736237,225.392288 
	C171.824966,226.781616 171.916870,228.220703 172.008606,230.145950 
z"/>
<path fill="#7C1AF7" opacity="1.000000" stroke="none" 
	d="
M150.142624,128.995422 
	C149.133362,123.714577 145.792038,122.175873 140.766403,122.845657 
	C138.310165,123.172997 135.775497,122.917900 133.276321,122.915771 
	C125.727501,122.909325 125.554977,122.703712 126.554649,114.481812 
	C149.384872,114.481812 172.273300,114.481812 195.535477,114.481812 
	C195.535477,116.993523 195.535477,119.564423 195.535477,122.898064 
	C189.991394,122.898064 184.384064,123.050880 178.790680,122.837654 
	C175.701965,122.719894 173.677948,123.702164 172.112213,127.160904 
	C171.286133,140.981934 170.755280,154.268936 170.857986,167.551041 
	C170.891876,171.932663 169.507706,173.225586 165.496506,172.973694 
	C162.511566,172.786240 159.498154,172.790451 156.511353,172.957870 
	C152.395935,173.188522 150.880829,171.340591 150.936630,167.317215 
	C151.075150,157.331070 151.034439,147.341003 150.933945,137.353851 
	C150.905884,134.565338 150.419006,131.781433 150.142624,128.995422 
z"/>
<path fill="#7327E1" opacity="1.000000" stroke="none" 
	d="
M175.173798,185.032242 
	C178.596786,183.102020 181.433273,183.311050 183.915543,186.800919 
	C188.457840,193.187027 193.223358,199.414368 197.895782,205.707916 
	C198.376434,205.589844 198.857071,205.471771 199.337723,205.353699 
	C198.899231,198.351532 198.460739,191.349365 198.013962,184.214859 
	C198.388229,184.214859 199.847672,184.214859 201.118637,184.214859 
	C201.118637,194.799316 201.118637,205.264206 201.118637,215.729111 
	C200.618896,215.953400 200.119156,216.177704 199.619415,216.402008 
	C191.193710,209.025299 186.126373,198.709457 177.588684,190.711319 
	C178.006958,199.202393 178.425232,207.693451 178.859482,216.508530 
	C178.842499,216.504517 177.753586,216.247406 176.330322,215.449066 
	C176.000244,212.119370 176.083557,209.328354 175.993362,206.542984 
	C175.761169,199.371414 175.452133,192.202316 175.173798,185.032242 
z"/>
<path fill="#7424E8" opacity="1.000000" stroke="none" 
	d="
M258.962677,199.999481 
	C258.962433,205.457153 258.962433,210.418793 258.962433,215.698608 
	C256.945160,215.698608 254.886765,215.698608 252.708145,215.698608 
	C252.708145,205.928238 252.708145,196.261673 252.708145,185.561462 
	C249.458115,186.286453 246.441422,186.959381 243.313370,187.657150 
	C243.313370,186.851120 243.313370,185.608139 243.313370,184.167389 
	C251.704071,184.167389 259.977753,184.167389 268.603851,184.167389 
	C268.732117,185.446182 268.854645,186.667816 268.971588,187.833664 
	C265.770844,187.027161 262.758118,186.268036 258.962921,185.311722 
	C258.962921,190.621216 258.962921,195.062332 258.962677,199.999481 
z"/>
<path fill="#7424E8" opacity="1.000000" stroke="none" 
	d="
M232.994507,212.006454 
	C232.952866,212.359940 232.783997,212.635468 232.048019,213.043091 
	C231.351456,213.457428 231.152130,213.707397 231.010132,214.003098 
	C231.010132,214.003098 231.001831,214.002487 230.665527,213.969604 
	C229.519852,213.587036 228.710464,213.237366 227.901093,212.887695 
	C230.222717,205.711792 228.978622,203.511932 221.709976,200.888092 
	C217.596832,199.403336 212.498199,199.280548 210.946182,193.731934 
	C209.646927,189.086945 211.319153,185.834839 217.036499,184.035339 
	C220.591309,183.997345 223.320831,183.980011 226.050369,183.962677 
	C226.050369,183.962677 226.000000,183.999390 225.722870,184.164551 
	C223.627640,184.790802 221.809509,185.251892 219.991394,185.712967 
	C215.055252,190.157043 215.521408,192.275772 221.735992,194.535889 
	C224.758728,195.635193 227.656052,197.079330 230.972931,198.918610 
	C232.230560,200.305695 233.125412,201.141525 234.020279,201.977341 
	C234.020279,201.977341 234.001831,201.998169 234.006012,202.442291 
	C234.010468,205.597534 234.010727,208.308640 234.010986,211.019760 
	C234.010986,211.019760 233.999954,210.994568 233.803696,211.125977 
	C233.345963,211.460312 233.141663,211.710007 232.994507,212.006454 
z"/>
<path fill="#7424E8" opacity="1.000000" stroke="none" 
	d="
M351.904755,187.037506 
	C352.218597,186.030899 352.313660,184.339462 352.890259,184.155197 
	C354.237762,183.724640 355.816437,184.017670 357.874695,184.017670 
	C357.874695,194.030899 357.874695,203.758133 357.874695,214.340332 
	C363.123138,213.827301 367.712402,213.378693 372.707520,212.890411 
	C372.721710,213.054855 372.821716,214.214172 372.966339,215.891113 
	C365.882660,215.891113 359.080383,215.909729 352.279236,215.829559 
	C351.976379,215.826004 351.684174,214.923340 351.886505,213.851807 
	C352.225586,204.521957 352.065186,195.779724 351.904755,187.037506 
z"/>
<path fill="#7424E8" opacity="1.000000" stroke="none" 
	d="
M164.994049,184.016495 
	C165.941803,184.747757 166.873001,185.442871 166.879929,186.147064 
	C166.975784,195.891907 166.944717,205.637985 166.944717,215.681335 
	C164.564682,215.681335 162.543655,215.681335 160.615875,215.681335 
	C160.615875,205.183472 160.615875,195.023621 160.615875,184.323486 
	C161.738098,184.226746 163.142929,184.105652 164.994049,184.016495 
z"/>
<path fill="#7B1CF4" opacity="1.000000" stroke="none" 
	d="
M290.041870,184.177414 
	C293.017517,184.251480 294.326508,185.764923 295.382324,188.645691 
	C298.688873,197.667328 302.506744,206.501541 306.258636,215.733551 
	C304.669556,215.808319 303.233795,215.875854 301.343994,215.600830 
	C300.314941,214.479904 299.739868,213.701569 299.164795,212.923233 
	C298.483551,211.516632 297.802338,210.110046 296.961090,208.144257 
	C296.604584,207.306885 296.345154,207.112915 296.022766,207.003174 
	C296.022766,207.003174 295.993286,207.010910 295.992432,206.635864 
	C295.619171,205.143768 295.246735,204.026703 294.924316,202.538055 
	C293.299042,197.837494 291.623718,193.508514 289.928528,188.762634 
	C289.953094,186.956268 289.997467,185.566849 290.041870,184.177414 
z"/>
<path fill="#6D2DD1" opacity="1.000000" stroke="none" 
	d="
M294.874298,202.909637 
	C295.246735,204.026703 295.619171,205.143768 295.995697,206.621002 
	C292.364075,203.994507 287.975555,203.741776 284.694244,206.388657 
	C282.494995,208.162674 282.007782,212.059097 280.754517,215.005859 
	C281.203339,215.265839 281.652130,215.525818 282.100922,215.785797 
	C280.341675,215.785797 278.582428,215.785797 276.718292,215.785797 
	C280.454041,205.611923 284.076660,195.696198 287.767487,185.805923 
	C288.015411,185.141525 288.778870,184.669510 289.672211,184.142715 
	C289.997467,185.566849 289.953094,186.956268 289.590576,188.889191 
	C287.784607,193.636185 286.296814,197.839706 284.894073,201.802841 
	C288.556824,202.209030 291.715576,202.559341 294.874298,202.909637 
z"/>
<path fill="#7B1CF4" opacity="1.000000" stroke="none" 
	d="
M342.987030,205.070740 
	C342.951599,205.476898 342.916168,205.883072 342.534302,206.708588 
	C341.789520,207.766769 341.391205,208.405594 340.992859,209.044434 
	C340.992859,209.044434 340.905609,209.467499 340.551636,209.785095 
	C339.794006,210.732407 339.390320,211.362137 338.986633,211.991867 
	C338.986633,211.991867 339.000000,212.000000 338.788513,212.069946 
	C338.317322,212.290237 338.110352,212.494125 337.956116,212.751556 
	C337.956116,212.751556 337.501038,212.911972 337.047424,213.077576 
	C336.321472,213.444824 336.124908,213.703949 336.004089,214.020554 
	C336.004089,214.020554 335.998383,213.999191 335.796997,214.080353 
	C335.330261,214.315155 335.108734,214.516937 334.931061,214.766861 
	C334.522156,214.829269 334.113281,214.891678 333.237885,214.718506 
	C332.489136,213.951706 332.206879,213.420517 332.103882,212.583893 
	C333.847687,210.379364 335.915894,208.703506 336.876312,206.536636 
	C339.176666,201.346481 338.209320,196.100540 335.871277,190.825317 
	C335.561432,190.338791 335.313660,190.130798 335.006683,189.992676 
	C335.000000,190.000000 335.014404,189.986420 334.906952,189.769318 
	C334.604004,189.281586 334.349426,189.089050 334.020782,188.987366 
	C334.005768,189.000107 334.029327,188.968933 334.006927,188.704254 
	C335.014984,187.959412 336.045441,187.479263 337.075897,186.999115 
	C337.075897,186.999130 337.470795,187.068710 337.725342,187.465805 
	C338.919373,188.615524 339.858887,189.368134 340.798370,190.120743 
	C340.798370,190.120743 340.937408,190.502457 341.093445,190.928314 
	C341.507935,191.569122 341.766357,191.784073 342.024750,191.999023 
	C342.024750,191.999023 341.997986,192.001923 342.034698,192.272766 
	C342.326294,193.049911 342.581177,193.556183 342.836060,194.062469 
	C342.836060,194.062469 342.961151,194.480576 342.945709,195.159637 
	C342.949188,198.916031 342.968109,201.993393 342.987030,205.070740 
z"/>
<path fill="#7C2EE9" opacity="1.000000" stroke="none" 
	d="
M150.071320,129.460037 
	C150.419006,131.781433 150.905884,134.565338 150.933945,137.353851 
	C151.034439,147.341003 151.075150,157.331070 150.936630,167.317215 
	C150.880829,171.340591 152.395935,173.188522 156.511353,172.957870 
	C159.498154,172.790451 162.511566,172.786240 165.496506,172.973694 
	C169.507706,173.225586 170.891876,171.932663 170.857986,167.551041 
	C170.755280,154.268936 171.286133,140.981934 171.794083,127.349854 
	C172.017990,142.440140 172.017990,157.877411 172.017990,173.633896 
	C164.548416,173.633896 157.645020,173.633896 150.000000,173.633896 
	C150.000000,159.064209 150.000000,144.494431 150.071320,129.460037 
z"/>
<path fill="#7C1BF6" opacity="1.000000" stroke="none" 
	d="
M315.208435,201.966248 
	C315.175781,201.532578 315.143097,201.098892 315.325867,199.966721 
	C315.725250,194.244675 315.909180,189.221115 316.093140,184.197571 
	C317.134613,184.147141 318.176117,184.096710 319.611450,184.435577 
	C320.018951,185.259079 320.032623,185.693253 320.003265,186.336517 
	C319.960236,186.545578 319.824829,186.950439 319.627991,187.318939 
	C319.570831,196.141983 319.710541,204.596527 319.922455,213.234253 
	C319.994629,213.417435 320.070770,213.803787 319.814453,214.026306 
	C316.512024,215.580475 315.759308,214.235580 315.782745,211.331619 
	C315.807922,208.211578 315.417511,205.088181 315.208435,201.966248 
z"/>
<path fill="#6D2DD1" opacity="1.000000" stroke="none" 
	d="
M227.489899,212.916290 
	C228.710464,213.237366 229.519852,213.587036 230.665680,213.974152 
	C224.397873,219.985077 215.122650,216.611755 210.292145,212.726120 
	C208.741486,211.478821 209.488434,207.375214 209.757431,204.523285 
	C215.503098,214.164291 218.078491,215.472107 227.489899,212.916290 
z"/>
<path fill="#6D2DD1" opacity="1.000000" stroke="none" 
	d="
M315.115479,202.412766 
	C315.417511,205.088181 315.807922,208.211578 315.782745,211.331619 
	C315.759308,214.235580 316.512024,215.580475 320.254822,214.085541 
	C324.609222,213.577942 328.266907,213.233627 331.924622,212.889313 
	C332.206879,213.420517 332.489136,213.951706 332.927490,214.740158 
	C326.941193,215.553757 320.798767,216.110107 314.174652,216.710083 
	C314.506744,211.285004 314.764648,207.072144 315.115479,202.412766 
z"/>
<path fill="#6D2DD1" opacity="1.000000" stroke="none" 
	d="
M320.046265,186.127441 
	C320.032623,185.693253 320.018951,185.259079 319.998657,184.499161 
	C325.664062,184.191986 331.534912,182.649551 336.909637,186.653198 
	C336.045441,187.479263 335.014984,187.959412 333.660370,188.570786 
	C329.392548,185.333374 324.684906,185.908463 320.046265,186.127441 
z"/>
<path fill="#6D2DD1" opacity="1.000000" stroke="none" 
	d="
M220.415283,185.796417 
	C221.809509,185.251892 223.627640,184.790802 225.747375,184.144562 
	C232.851303,185.296646 233.408142,185.985077 232.445999,193.004227 
	C230.292816,186.877579 226.136673,185.289871 220.415283,185.796417 
z"/>
<path fill="#7C2EE9" opacity="1.000000" stroke="none" 
	d="
M175.092911,185.491928 
	C175.452133,192.202316 175.761169,199.371414 175.993362,206.542984 
	C176.083557,209.328354 176.000244,212.119370 175.995758,215.365128 
	C175.655594,214.338409 175.036438,212.857117 175.021866,211.369888 
	C174.938797,202.897903 174.999908,194.424530 175.092911,185.491928 
z"/>
<path fill="#7C2EE9" opacity="1.000000" stroke="none" 
	d="
M351.929596,187.502869 
	C352.065186,195.779724 352.225586,204.521957 352.169525,213.611969 
	C351.953522,205.295929 351.953979,196.632080 351.929596,187.502869 
z"/>
<path fill="#6D2DD1" opacity="1.000000" stroke="none" 
	d="
M315.690857,184.161011 
	C315.909180,189.221115 315.725250,194.244675 315.374451,199.643250 
	C314.843750,195.659454 314.401398,191.304581 314.179626,186.938522 
	C314.133057,186.021637 314.897736,185.063568 315.690857,184.161011 
z"/>
<path fill="#6D2DD1" opacity="1.000000" stroke="none" 
	d="
M343.317291,204.815399 
	C342.968109,201.993393 342.949188,198.916031 342.965454,195.376953 
	C343.216309,198.130157 343.431915,201.345123 343.317291,204.815399 
z"/>
<path fill="#6D2DD1" opacity="1.000000" stroke="none" 
	d="
M234.366180,210.813324 
	C234.010727,208.308640 234.010468,205.597534 234.017883,202.435287 
	C234.257492,204.858398 234.489441,207.732651 234.366180,210.813324 
z"/>
<path fill="#6D2DD1" opacity="1.000000" stroke="none" 
	d="
M225.833969,183.613449 
	C223.320831,183.980011 220.591309,183.997345 217.406372,184.003769 
	C219.839844,183.749969 222.728714,183.507095 225.833969,183.613449 
z"/>
<path fill="#6D2DD1" opacity="1.000000" stroke="none" 
	d="
M340.812866,189.794922 
	C339.858887,189.368134 338.919373,188.615524 337.909882,187.544174 
	C338.835693,187.973328 339.831512,188.721207 340.812866,189.794922 
z"/>
<path fill="#6D2DD1" opacity="1.000000" stroke="none" 
	d="
M299.095001,213.285858 
	C299.739868,213.701569 300.314941,214.479904 300.974152,215.540192 
	C300.380615,215.097580 299.702911,214.373032 299.095001,213.285858 
z"/>
<path fill="#6D2DD1" opacity="1.000000" stroke="none" 
	d="
M233.972137,201.644867 
	C233.125412,201.141525 232.230560,200.305695 231.177078,199.203125 
	C231.986969,199.728394 232.955475,200.520401 233.972137,201.644867 
z"/>
<path fill="#6D2DD1" opacity="1.000000" stroke="none" 
	d="
M341.275635,208.935333 
	C341.391205,208.405594 341.789520,207.766769 342.453766,207.003494 
	C342.332581,207.528107 341.945496,208.177155 341.275635,208.935333 
z"/>
<path fill="#6D2DD1" opacity="1.000000" stroke="none" 
	d="
M339.270203,211.893326 
	C339.390320,211.362137 339.794006,210.732407 340.466125,209.983414 
	C340.340973,210.507690 339.947388,211.151230 339.270203,211.893326 
z"/>
<path fill="#6D2DD1" opacity="1.000000" stroke="none" 
	d="
M342.898193,193.749969 
	C342.581177,193.556183 342.326294,193.049911 342.039001,192.260101 
	C342.324493,192.463547 342.642395,192.950516 342.898193,193.749969 
z"/>
<path fill="#6D2DD1" opacity="1.000000" stroke="none" 
	d="
M296.098511,207.246216 
	C296.345154,207.112915 296.604584,207.306885 296.905823,207.808563 
	C296.731812,207.851120 296.453003,207.670197 296.098511,207.246216 
z"/>
<path fill="#6D2DD1" opacity="1.000000" stroke="none" 
	d="
M233.240585,211.930176 
	C233.141663,211.710007 233.345963,211.460312 233.816422,211.132065 
	C233.845825,211.289124 233.666245,211.571518 233.240585,211.930176 
z"/>
<path fill="#6D2DD1" opacity="1.000000" stroke="none" 
	d="
M341.958008,191.739380 
	C341.766357,191.784073 341.507935,191.569122 341.133728,191.127411 
	C341.309052,191.093674 341.600159,191.286697 341.958008,191.739380 
z"/>
<path fill="#6D2DD1" opacity="1.000000" stroke="none" 
	d="
M338.211334,212.785751 
	C338.110352,212.494125 338.317322,212.290237 338.783173,212.064438 
	C338.815063,212.265976 338.640808,212.542969 338.211334,212.785751 
z"/>
<path fill="#6D2DD1" opacity="1.000000" stroke="none" 
	d="
M231.251572,213.922424 
	C231.152130,213.707397 231.351456,213.457428 231.813568,213.126205 
	C231.843674,213.280075 231.668350,213.560913 231.251572,213.922424 
z"/>
<path fill="#6D2DD1" opacity="1.000000" stroke="none" 
	d="
M336.254211,213.947998 
	C336.124908,213.703949 336.321472,213.444824 336.811340,213.127411 
	C336.854065,213.299576 336.679230,213.587509 336.254211,213.947998 
z"/>
<path fill="#6D2DD1" opacity="1.000000" stroke="none" 
	d="
M335.195984,214.813843 
	C335.108734,214.516937 335.330261,214.315155 335.807312,214.083252 
	C335.832916,214.290253 335.646912,214.575546 335.195984,214.813843 
z"/>
<path fill="#000000" opacity="1.000000" stroke="none" 
	d="
M294.924316,202.538055 
	C291.715576,202.559341 288.556824,202.209030 284.894073,201.802841 
	C286.296814,197.839706 287.784607,193.636185 289.610413,189.306107 
	C291.623718,193.508514 293.299042,197.837494 294.924316,202.538055 
z"/>
<path fill="#000000" opacity="1.000000" stroke="none" 
	d="
M320.003235,186.336517 
	C324.684906,185.908463 329.392548,185.333374 333.682770,188.835480 
	C334.029327,188.968933 334.005768,189.000107 334.091522,189.231293 
	C334.456329,189.637146 334.735352,189.811783 335.014404,189.986420 
	C335.014404,189.986420 335.000000,190.000000 335.059448,190.250946 
	C335.407867,190.681686 335.696838,190.861511 335.985840,191.041321 
	C338.209320,196.100540 339.176666,201.346481 336.876312,206.536636 
	C335.915894,208.703506 333.847687,210.379364 332.103882,212.583893 
	C328.266907,213.233627 324.609222,213.577942 320.511139,213.863022 
	C320.070770,213.803787 319.994629,213.417435 319.977478,212.763123 
	C319.915161,203.722702 319.869995,195.336563 319.824829,186.950439 
	C319.824829,186.950439 319.960236,186.545578 320.003235,186.336517 
z"/>
<path fill="#6D2DD1" opacity="1.000000" stroke="none" 
	d="
M335.871277,190.825317 
	C335.696838,190.861511 335.407867,190.681686 335.066101,190.243622 
	C335.313660,190.130798 335.561432,190.338791 335.871277,190.825317 
z"/>
<path fill="#6D2DD1" opacity="1.000000" stroke="none" 
	d="
M334.906952,189.769318 
	C334.735352,189.811783 334.456329,189.637146 334.106537,189.218567 
	C334.349426,189.089050 334.604004,189.281586 334.906952,189.769318 
z"/>
<path fill="#6D2DD1" opacity="1.000000" stroke="none" 
	d="
M319.627991,187.318939 
	C319.869995,195.336563 319.915161,203.722702 319.905273,212.579941 
	C319.710541,204.596527 319.570831,196.141983 319.627991,187.318939 
z"/>
</svg>